<svg xmlns="http://www.w3.org/2000/svg" viewBox="0 0 576 576">
  <title>Logo</title>
  <g id="Logo_Final" data-name="Logo Final">
    <line id="line3" x1="229.47" y1="60" x2="130.63" y2="323.44" style="fill: none;stroke: #000;stroke-linecap: round;stroke-linejoin: round;stroke-width: 17px"/>
    <line id="line2" x1="301.47" y1="252" x2="229.47" y2="60" style="fill: none;stroke: #000;stroke-linecap: round;stroke-linejoin: round;stroke-width: 17px"/>
    <line id="line1" x1="301.47" y1="516" x2="301.47" y2="252" style="fill: none;stroke: #000;stroke-linecap: round;stroke-linejoin: round;stroke-width: 17px"/>
    <path id="swoosh" d="M211.77,252h161.7c95.82,0,95.94,144-.06,144H355.47" style="fill: none;stroke: #000;stroke-linecap: round;stroke-linejoin: round;stroke-width: 23px"/>
    <polygon id="tri5" points="269.06 516 269.06 431.04 215.31 431.04 269.06 516" style="fill: #66a39d;stroke: #66a39d;stroke-linecap: round;stroke-linejoin: round;stroke-width: 14px;opacity: 0.38"/>
    <polygon id="tri4" points="130.63 354.95 188.01 354.95 188.01 405.03 130.63 354.95" style="fill: #66a39d;stroke: #66a39d;stroke-linecap: round;stroke-linejoin: round;stroke-width: 14px;opacity: 0.49"/>
    <polygon id="tri3" points="269.06 405.03 215.31 405.03 215.31 354.95 269.06 405.03" style="fill: #66a39d;stroke: #66a39d;stroke-linecap: round;stroke-linejoin: round;stroke-width: 14px;opacity: 0.69"/>
    <polygon id="tri2" points="188.01 331.08 167.55 331.08 167.55 308.87 188.01 331.08" style="fill: #66a39d;stroke: #66a39d;stroke-linecap: round;stroke-linejoin: round;stroke-width: 14px;opacity: 0.9"/>
    <polygon id="tri1" points="183.41 286 269.06 286 269.06 365.81 183.41 286" style="fill: #66a39d;stroke: #66a39d;stroke-linecap: round;stroke-linejoin: round;stroke-width: 14px"/>
  </g>
</svg>
